<svg width="40" height="42" viewBox="0 0 40 42" fill="none" xmlns="http://www.w3.org/2000/svg">
<path d="M31.5009 31.06C33.1831 33.7864 33.9759 35.2338 33.9759 36.7437C33.9759 39.7255 31.8244 41.1714 28.9259 41.1714C27.6482 41.1714 26.8235 41.1697 24.7391 40.0535C24.7391 40.0535 23.3885 38.7813 20.2279 38.912C17.0378 38.7822 15.6865 40.0695 15.6865 40.0695C13.6021 41.1848 12.8068 41.173 11.5308 41.173C8.63227 41.173 6.47907 39.7289 6.47907 36.7454C6.47907 35.2355 7.27433 33.7897 8.95578 31.0617C8.95578 31.0617 12.1344 25.6283 14.8887 23.0722C16.879 21.2276 19.7807 21.2344 19.7807 21.2344H20.6759V21.2335C20.6759 21.2335 23.7046 21.226 25.5704 23.0722C28.2395 25.721 31.5009 31.0608 31.5009 31.06ZM13.1467 17.6009C16.1771 17.6009 18.6333 13.6606 18.6333 8.80045C18.6333 3.94035 16.1771 0 13.1467 0C10.1163 0 7.66009 3.94035 7.66009 8.80045C7.66009 13.6606 10.1163 17.6009 13.1467 17.6009ZM7.8886 26.124C10.1221 25.0626 10.6315 21.2993 9.02539 17.7181C7.4193 14.1369 4.30703 12.0934 2.07357 13.1539C-0.159889 14.2144 -0.668498 17.9786 0.936776 21.5598C2.54287 25.141 5.65514 27.1837 7.8886 26.124ZM25.9029 17.6009C28.9333 17.6009 31.3903 13.6606 31.3903 8.80045C31.3903 3.94035 28.9333 0 25.9029 0C22.8725 0 20.4163 3.94035 20.4163 8.80045C20.4163 13.6606 22.8725 17.6009 25.9029 17.6009ZM36.9768 13.153C34.7425 12.0917 31.6311 14.1352 30.025 17.7172C28.4189 21.2993 28.9283 25.0626 31.1626 26.124C33.3969 27.1845 36.5083 25.141 38.1144 21.5598C39.7205 17.9786 39.2111 14.2144 36.9768 13.153Z" fill="#6F1D1B"/>
</svg>
