<?xml version="1.0" standalone="no"?>
<!DOCTYPE svg PUBLIC "-//W3C//DTD SVG 20010904//EN"
 "http://www.w3.org/TR/2001/REC-SVG-20010904/DTD/svg10.dtd">
<svg version="1.0" xmlns="http://www.w3.org/2000/svg"
 width="512.000000pt" height="512.000000pt" viewBox="0 0 512.000000 512.000000"
 preserveAspectRatio="xMidYMid meet">
<metadata>
Created by potrace 1.14, written by Peter Selinger 2001-2017
</metadata>
<g transform="translate(0.000000,512.000000) scale(0.100000,-0.100000)"
fill="#000000" stroke="none">
<path d="M938 4785 c-93 -35 -174 -114 -227 -219 -50 -100 -64 -166 -66 -319
l-3 -138 -60 -3 c-111 -4 -227 -88 -288 -208 -66 -129 -70 -296 -13 -458 l34
-95 3 -1512 2 -1513 1040 0 1040 0 1 1488 c0 818 3 1501 5 1517 3 17 19 73 36
125 28 85 32 108 32 210 -1 103 -4 122 -30 188 -37 93 -86 158 -154 204 -55
37 -144 61 -192 53 l-23 -4 0 132 c-1 151 -16 222 -70 334 -42 85 -114 162
-188 200 -74 38 -187 39 -268 1 -58 -27 -134 -94 -165 -147 -10 -17 -21 -31
-24 -31 -3 0 -14 13 -23 30 -31 52 -100 116 -155 144 -66 34 -186 44 -244 21z"/>
<path d="M3344 3826 c-119 -38 -214 -148 -270 -311 -24 -71 -28 -97 -30 -223
l-2 -143 -60 -3 c-110 -4 -227 -87 -285 -203 -66 -129 -73 -300 -20 -458 17
-50 33 -111 36 -135 3 -25 6 -492 6 -1037 l1 -993 1040 0 1040 0 1 998 c0 548
2 1015 4 1037 3 22 19 81 36 130 29 82 32 101 33 210 0 109 -3 126 -28 190
-38 92 -96 169 -160 210 -53 34 -144 58 -188 50 l-24 -5 0 113 c1 137 -7 197
-37 280 -73 200 -208 310 -373 304 -103 -4 -223 -79 -280 -176 -10 -17 -21
-31 -24 -31 -3 0 -14 14 -24 31 -29 50 -103 117 -159 145 -61 32 -170 41 -233
20z"/>
</g>
</svg>
