<svg width="512" height="446" viewBox="0 0 512 446" fill="none" xmlns="http://www.w3.org/2000/svg">
<path d="M490.663 113.773C474.373 86.493 451.485 60.539 436.028 46.92C402.039 16.963 373.614 17.745 359.697 20.876C354.099 22.136 348.947 24.185 344.361 26.886C320.349 9.34801 291.198 0.755005 255.999 0.755005C220.8 0.755005 191.649 9.34801 167.637 26.886C163.05 24.185 157.898 22.136 152.301 20.876C138.384 17.745 109.959 16.962 75.9708 46.919C60.5128 60.539 37.6238 86.493 21.3348 113.774C-0.875219 150.97 -5.77422 181.146 6.77578 203.467C21.5708 229.777 44.3808 237.122 62.5898 239.12C58.2358 256.32 55.5658 274.774 55.5658 297.646C55.5658 328.785 62.7018 355.592 76.7758 377.319C89.1488 396.422 106.947 411.712 129.678 422.764C165.142 440.008 206.661 444.328 239.309 445.245V341.141C219.09 331.607 199.397 307.738 199.397 288.717C199.397 256.678 234.831 256.678 256.001 256.678C277.171 256.678 312.605 256.678 312.605 288.717C312.605 307.74 292.911 331.607 272.693 341.141V445.244C305.342 444.327 346.862 440.007 382.324 422.763C405.054 411.711 422.853 396.421 435.226 377.318C449.299 355.59 456.436 328.784 456.436 297.645C456.436 274.772 453.767 256.318 449.412 239.118C467.621 237.121 490.432 229.775 505.226 203.465C517.772 181.145 512.873 150.97 490.663 113.773ZM204.071 208.175C192.782 208.175 183.594 198.935 183.594 187.536C183.594 176.136 192.781 166.903 204.071 166.903C215.374 166.903 224.56 176.136 224.56 187.536C224.561 198.935 215.375 208.175 204.071 208.175ZM307.773 208.33C296.374 208.33 287.128 199.021 287.128 187.537C287.128 176.053 296.374 166.744 307.773 166.744C319.158 166.744 328.403 176.053 328.403 187.537C328.403 199.021 319.157 208.33 307.773 208.33Z" fill="#432818"/>
</svg>
