<svg width="122" height="111" viewBox="0 0 122 111" fill="none" xmlns="http://www.w3.org/2000/svg">
<path d="M30 103.785C39 108.386 49.1 110.785 59.2 110.985C59.7 110.985 60.3 110.985 60.8 110.985C71 110.985 81.1 108.785 90.3 104.385C98.699 100.385 106.3 94.385 111.901 86.885C118.3 78.284 121.6 67.985 121.6 57.284C121.6 50.484 121.6 43.784 121.6 36.984C121.6 29.584 121.6 22.284 121.6 14.884C121.6 12.284 121.6 9.68404 121.6 7.18404C121.6 2.48404 116.901 -0.615963 112.6 1.08404L89.8 10.584C88.3 11.184 86.6 11.284 85.1 10.684C77.7 7.78404 69.5 6.28404 60.8 6.28404C52.1 6.28404 43.9 7.88404 36.5 10.684C35 11.284 33.3 11.184 31.8 10.584L9 1.38504C4.7 -0.414963 0 2.78504 0 7.48504C0 10.985 0 14.585 0 18.085C0 25.385 0 32.685 0 40.085C0 46.285 0 52.385 0 58.585C0 68.485 3.2 78.085 8.9 86.085C14.3 93.585 21.7 99.585 30 103.785ZM83 57.485C88.5 57.485 93 61.985 93 67.485C93 72.985 88.5 77.485 83 77.485C77.5 77.485 73 72.985 73 67.485C73 61.886 77.5 57.485 83 57.485ZM38.6 57.485C44.1 57.485 48.6 61.985 48.6 67.485C48.6 72.985 44.1 77.485 38.6 77.485C33.1 77.485 28.6 72.985 28.6 67.485C28.6 61.886 33.1 57.485 38.6 57.485Z" fill="#432818"/>
</svg>
